<svg viewBox="0 0 400 80" fill="none" xmlns="http://www.w3.org/2000/svg">
  <!-- V -->
  <polygon points="0,10 25,10 52,70 79,10 104,10 65,80 39,80" fill="white"/>
  <!-- A -->
  <path d="M95,80 L130,10 L156,10 L191,80 L164,80 L158,65 L128,65 L122,80 Z M143,22 L133,50 L153,50 Z" fill="white"/>
  <!-- N -->
  <polygon points="200,10 227,10 227,45 262,10 289,10 289,80 262,80 262,45 227,80 200,80" fill="white"/>
  <!-- T -->
  <polygon points="295,10 385,10 385,30 353,30 353,80 327,80 327,30 295,30" fill="white"/>
  <!-- A -->
  <path d="M375,80 L410,10 L436,10 L471,80 L444,80 L438,65 L408,65 L402,80 Z M423,22 L413,50 L433,50 Z" fill="white"/>
</svg>
